# Wavefront OBJ file
# Exported by Misfit Model 3D 1.2.4
# Mon Mar 26 13:44:38 2018

mtllib Medikit.mtl

# 35 Vertices
v 9.0 14.125 -15.125
v -9.35938 0.671875 -15.125
v -9.28125 17.1562 -15.25
v 8.92188 0.671875 -15.125
v 9.0 17.1562 -15.25
v 9.60938 14.0625 -14.7656
v 9.3125 0.671875 -14.6406
v 9.3125 14.2031 -14.6406
v -9.73438 0.671875 -14.6406
v -9.73438 17.1562 -14.7656
v -9.73438 0.671875 14.8594
v -9.73438 17.1562 14.9844
v -9.28125 17.1562 15.4688
v -9.35938 0.671875 15.3438
v 9.60938 17.1562 -14.7656
v 8.92188 0.671875 15.3438
v 9.0 14.125 15.3438
v 9.0 17.1562 15.4688
v 9.60938 14.0625 14.9844
v 9.60938 17.1562 14.9844
v 8.92188 0.1875 14.8594
v -9.35938 0.1875 -14.6406
v 8.92188 0.1875 -14.6406
v -9.35938 0.1875 14.8594
v 9.3125 0.671875 14.8594
v 9.3125 14.2031 14.8594
v 9.23438 17.7031 14.9844
v 9.23438 17.7031 -14.7656
v -9.28125 17.7031 -14.7656
v -9.28125 17.7031 14.9844
v 9.76562 8.5 0.046875
v 9.76562 8.5 -9.21875
v 9.76562 8.5 9.4375
v 9.3125 8.15625 9.20312
v 9.3125 8.15625 -9.10938

# 186 Texture Coordinates
vt 0.966797 0.357422
vt 0.552734 0.154297
vt 0.552734 0.404297
vt 0.552734 0.154297
vt 0.966797 0.357422
vt 0.966797 0.154297
vt 0.966797 0.404297
vt 0.980469 0.357422
vt 0.966797 0.357422
vt 0.980469 0.154297
vt 0.966797 0.357422
vt 0.980469 0.357422
vt 0.966797 0.357422
vt 0.980469 0.154297
vt 0.966797 0.154297
vt 0.552734 0.404297
vt 0.966797 0.404297
vt 0.966797 0.357422
vt 0.541016 0.154297
vt 0.552734 0.404297
vt 0.552734 0.154297
vt 0.552734 0.404297
vt 0.541016 0.154297
vt 0.541016 0.404297
vt 0.025391 0.154297
vt 0.541016 0.404297
vt 0.541016 0.154297
vt 0.541016 0.404297
vt 0.025391 0.154297
vt 0.025391 0.404297
vt 0.025391 0.154297
vt 0.015625 0.404297
vt 0.025391 0.404297
vt 0.015625 0.404297
vt 0.025391 0.154297
vt 0.015625 0.154297
vt 0.980469 0.357422
vt 0.966797 0.404297
vt 0.980469 0.404297
vt 0.552734 0.404297
vt 0.552734 0.154297
vt 0.966797 0.154297
vt 0.966797 0.154297
vt 0.966797 0.357422
vt 0.552734 0.404297
vt 0.552734 0.404297
vt 0.966797 0.357422
vt 0.966797 0.404297
vt 0.980469 0.357422
vt 0.966797 0.404297
vt 0.966797 0.357422
vt 0.966797 0.404297
vt 0.980469 0.357422
vt 0.980469 0.404297
vt 0.966797 0.482422
vt 0.636719 0.970703
vt 0.966797 0.970703
vt 0.636719 0.970703
vt 0.966797 0.482422
vt 0.636719 0.482422
vt 0.966797 0.476562
vt 0.966797 0.482422
vt 0.974609 0.482422
vt 0.966797 0.482422
vt 0.636719 0.476562
vt 0.636719 0.482422
vt 0.636719 0.476562
vt 0.966797 0.482422
vt 0.966797 0.476562
vt 0.966797 0.970703
vt 0.974609 0.482422
vt 0.966797 0.482422
vt 0.966797 0.976562
vt 0.974609 0.970703
vt 0.966797 0.970703
vt 0.636719 0.970703
vt 0.966797 0.976562
vt 0.966797 0.970703
vt 0.974609 0.482422
vt 0.966797 0.970703
vt 0.974609 0.970703
vt 0.966797 0.976562
vt 0.636719 0.970703
vt 0.636719 0.976562
vt 0.628906 0.970703
vt 0.636719 0.976562
vt 0.636719 0.970703
vt 0.636719 0.482422
vt 0.628906 0.970703
vt 0.636719 0.970703
vt 0.636719 0.482422
vt 0.636719 0.476562
vt 0.628906 0.482422
vt 0.628906 0.970703
vt 0.636719 0.482422
vt 0.628906 0.482422
vt 0.541016 0.404297
vt 0.025391 0.154297
vt 0.025391 0.404297
vt 0.025391 0.154297
vt 0.541016 0.404297
vt 0.541016 0.154297
vt 0.583984 0.603516
vt 0.03125 0.603516
vt 0.03125 0.962891
vt 0.03125 0.962891
vt 0.583984 0.962891
vt 0.583984 0.603516
vt 0.583984 0.603516
vt 0.595703 0.603516
vt 0.583984 0.589844
vt 0.583984 0.962891
vt 0.595703 0.603516
vt 0.583984 0.603516
vt 0.583984 0.603516
vt 0.03125 0.589844
vt 0.03125 0.603516
vt 0.03125 0.589844
vt 0.583984 0.603516
vt 0.583984 0.589844
vt 0.03125 0.589844
vt 0.019531 0.603516
vt 0.03125 0.603516
vt 0.03125 0.603516
vt 0.019531 0.962891
vt 0.03125 0.962891
vt 0.019531 0.962891
vt 0.03125 0.603516
vt 0.019531 0.603516
vt 0.306641 0.447266
vt 0.03125 0.589844
vt 0.583984 0.589844
vt 0.130859 0.447266
vt 0.03125 0.589844
vt 0.306641 0.447266
vt 0.03125 0.539062
vt 0.03125 0.589844
vt 0.130859 0.447266
vt 0.583984 0.589844
vt 0.583984 0.539062
vt 0.482422 0.447266
vt 0.306641 0.447266
vt 0.583984 0.589844
vt 0.482422 0.447266
vt 0.482422 0.433594
vt 0.130859 0.447266
vt 0.306641 0.447266
vt 0.482422 0.433594
vt 0.306641 0.447266
vt 0.482422 0.447266
vt 0.130859 0.433594
vt 0.03125 0.539062
vt 0.130859 0.447266
vt 0.130859 0.447266
vt 0.482422 0.433594
vt 0.130859 0.433594
vt 0.482422 0.447266
vt 0.583984 0.523438
vt 0.482422 0.433594
vt 0.019531 0.962891
vt 0.03125 0.976562
vt 0.03125 0.962891
vt 0.583984 0.976562
vt 0.03125 0.962891
vt 0.03125 0.976562
vt 0.595703 0.962891
vt 0.583984 0.962891
vt 0.583984 0.976562
vt 0.03125 0.962891
vt 0.583984 0.976562
vt 0.583984 0.962891
vt 0.595703 0.603516
vt 0.583984 0.962891
vt 0.595703 0.962891
vt 0.980469 0.357422
vt 0.966797 0.154297
vt 0.966797 0.357422
vt 0.966797 0.154297
vt 0.980469 0.357422
vt 0.980469 0.154297
vt 0.03125 0.539062
vt 0.130859 0.433594
vt 0.03125 0.523438
vt 0.583984 0.523438
vt 0.482422 0.447266
vt 0.583984 0.539062

# 186 Vertex Normals
vn 0.392928 -0.119943 -0.911713
vn -0.340098 -0.288411 -0.895071
vn -0.353374 0.295358 -0.887632
vn -0.340098 -0.288411 -0.895071
vn 0.392928 -0.119943 -0.911713
vn 0.33299 -0.451745 -0.827673
vn 0.37299 0.214789 -0.902632
vn 0.645242 -0.313269 -0.696796
vn 0.392928 -0.119943 -0.911713
vn 0.925998 -0.213156 -0.311596
vn 0.392928 -0.119943 -0.911713
vn 0.959247 0.0 -0.282569
vn 0.392928 -0.119943 -0.911713
vn 0.925998 -0.213156 -0.311596
vn 0.33299 -0.451745 -0.827673
vn -0.353374 0.295358 -0.887632
vn 0.37299 0.214789 -0.902632
vn 0.392928 -0.119943 -0.911713
vn -0.884109 -0.324362 -0.336363
vn -0.353374 0.295358 -0.887632
vn -0.340098 -0.288411 -0.895071
vn -0.353374 0.295358 -0.887632
vn -0.884109 -0.324362 -0.336363
vn -0.923627 0.257602 -0.283822
vn -0.91857 -0.210083 0.334806
vn -0.923627 0.257602 -0.283822
vn -0.884109 -0.324362 -0.336363
vn -0.923627 0.257602 -0.283822
vn -0.91857 -0.210083 0.334806
vn -0.871466 0.400145 0.283603
vn -0.91857 -0.210083 0.334806
vn -0.349245 0.183819 0.918824
vn -0.871466 0.400145 0.283603
vn -0.349245 0.183819 0.918824
vn -0.91857 -0.210083 0.334806
vn -0.340453 -0.451921 0.824536
vn 0.645242 -0.313269 -0.696796
vn 0.37299 0.214789 -0.902632
vn 0.936636 0.249983 -0.245401
vn -0.349245 0.183819 0.918824
vn -0.340453 -0.451921 0.824536
vn 0.33494 -0.290051 0.896485
vn 0.33494 -0.290051 0.896485
vn 0.426604 -0.23398 0.873649
vn -0.349245 0.183819 0.918824
vn -0.349245 0.183819 0.918824
vn 0.426604 -0.23398 0.873649
vn 0.314422 0.303724 0.899384
vn 0.708241 -0.20119 0.676696
vn 0.314422 0.303724 0.899384
vn 0.426604 -0.23398 0.873649
vn 0.314422 0.303724 0.899384
vn 0.708241 -0.20119 0.676696
vn 0.939768 0.186142 0.286685
vn 0.277864 -0.883949 0.376067
vn -0.284156 -0.882174 -0.375533
vn 0.513082 -0.809009 -0.286796
vn -0.284156 -0.882174 -0.375533
vn 0.277864 -0.883949 0.376067
vn -0.524092 -0.802358 0.28557
vn 0.33494 -0.290051 0.896485
vn 0.277864 -0.883949 0.376067
vn 0.890455 -0.329984 0.313369
vn 0.277864 -0.883949 0.376067
vn -0.340453 -0.451921 0.824536
vn -0.524092 -0.802358 0.28557
vn -0.340453 -0.451921 0.824536
vn 0.277864 -0.883949 0.376067
vn 0.33494 -0.290051 0.896485
vn 0.513082 -0.809009 -0.286796
vn 0.890455 -0.329984 0.313369
vn 0.277864 -0.883949 0.376067
vn 0.33299 -0.451745 -0.827673
vn 0.925998 -0.213156 -0.311596
vn 0.513082 -0.809009 -0.286796
vn -0.284156 -0.882174 -0.375533
vn 0.33299 -0.451745 -0.827673
vn 0.513082 -0.809009 -0.286796
vn 0.890455 -0.329984 0.313369
vn 0.513082 -0.809009 -0.286796
vn 0.925998 -0.213156 -0.311596
vn 0.33299 -0.451745 -0.827673
vn -0.284156 -0.882174 -0.375533
vn -0.340098 -0.288411 -0.895071
vn -0.884109 -0.324362 -0.336363
vn -0.340098 -0.288411 -0.895071
vn -0.284156 -0.882174 -0.375533
vn -0.524092 -0.802358 0.28557
vn -0.884109 -0.324362 -0.336363
vn -0.284156 -0.882174 -0.375533
vn -0.524092 -0.802358 0.28557
vn -0.340453 -0.451921 0.824536
vn -0.91857 -0.210083 0.334806
vn -0.884109 -0.324362 -0.336363
vn -0.524092 -0.802358 0.28557
vn -0.91857 -0.210083 0.334806
vn 0.982269 -0.0 0.187478
vn 0.925998 -0.213156 -0.311596
vn 0.959247 0.0 -0.282569
vn 0.925998 -0.213156 -0.311596
vn 0.982269 -0.0 0.187478
vn 0.890455 -0.329984 0.313369
vn 0.44778 0.843736 0.295977
vn 0.33252 0.781633 -0.527713
vn -0.421929 0.868605 -0.259811
vn -0.421929 0.868605 -0.259811
vn -0.325161 0.811656 0.485267
vn 0.44778 0.843736 0.295977
vn 0.44778 0.843736 0.295977
vn 0.314422 0.303724 0.899384
vn 0.939768 0.186142 0.286685
vn -0.325161 0.811656 0.485267
vn 0.314422 0.303724 0.899384
vn 0.44778 0.843736 0.295977
vn 0.44778 0.843736 0.295977
vn 0.936636 0.249983 -0.245401
vn 0.33252 0.781633 -0.527713
vn 0.936636 0.249983 -0.245401
vn 0.44778 0.843736 0.295977
vn 0.939768 0.186142 0.286685
vn 0.936636 0.249983 -0.245401
vn 0.37299 0.214789 -0.902632
vn 0.33252 0.781633 -0.527713
vn 0.33252 0.781633 -0.527713
vn -0.353374 0.295358 -0.887632
vn -0.421929 0.868605 -0.259811
vn -0.353374 0.295358 -0.887632
vn 0.33252 0.781633 -0.527713
vn 0.37299 0.214789 -0.902632
vn 0.93915 -0.343506 -0.0
vn 0.936636 0.249983 -0.245401
vn 0.939768 0.186142 0.286685
vn 0.834502 -0.525871 -0.164516
vn 0.936636 0.249983 -0.245401
vn 0.93915 -0.343506 -0.0
vn 0.645242 -0.313269 -0.696796
vn 0.936636 0.249983 -0.245401
vn 0.834502 -0.525871 -0.164516
vn 0.939768 0.186142 0.286685
vn 0.708241 -0.20119 0.676696
vn 0.772476 -0.532481 0.346042
vn 0.93915 -0.343506 -0.0
vn 0.939768 0.186142 0.286685
vn 0.772476 -0.532481 0.346042
vn 0.531565 -0.826632 0.184709
vn 0.834502 -0.525871 -0.164516
vn 0.93915 -0.343506 -0.0
vn 0.531565 -0.826632 0.184709
vn 0.93915 -0.343506 -0.0
vn 0.772476 -0.532481 0.346042
vn 0.452292 -0.752945 -0.478022
vn 0.645242 -0.313269 -0.696796
vn 0.834502 -0.525871 -0.164516
vn 0.834502 -0.525871 -0.164516
vn 0.531565 -0.826632 0.184709
vn 0.452292 -0.752945 -0.478022
vn 0.772476 -0.532481 0.346042
vn 0.426604 -0.23398 0.873649
vn 0.531565 -0.826632 0.184709
vn -0.353374 0.295358 -0.887632
vn -0.923627 0.257602 -0.283822
vn -0.421929 0.868605 -0.259811
vn -0.871466 0.400145 0.283603
vn -0.421929 0.868605 -0.259811
vn -0.923627 0.257602 -0.283822
vn -0.349245 0.183819 0.918824
vn -0.325161 0.811656 0.485267
vn -0.871466 0.400145 0.283603
vn -0.421929 0.868605 -0.259811
vn -0.871466 0.400145 0.283603
vn -0.325161 0.811656 0.485267
vn 0.314422 0.303724 0.899384
vn -0.325161 0.811656 0.485267
vn -0.349245 0.183819 0.918824
vn 0.426604 -0.23398 0.873649
vn 0.890455 -0.329984 0.313369
vn 0.982269 -0.0 0.187478
vn 0.890455 -0.329984 0.313369
vn 0.426604 -0.23398 0.873649
vn 0.33494 -0.290051 0.896485
vn 0.645242 -0.313269 -0.696796
vn 0.452292 -0.752945 -0.478022
vn 0.392928 -0.119943 -0.911713
vn 0.426604 -0.23398 0.873649
vn 0.772476 -0.532481 0.346042
vn 0.708241 -0.20119 0.676696

# <MD3Root>, 62 grouped triangles

usemtl Medikit
o <MD3Root>
g <MD3Root>

f 1/1/1 2/2/2 3/3/3
f 2/4/4 1/5/5 4/6/6
f 5/7/7 6/8/8 1/9/9
f 7/10/10 1/11/11 8/12/12
f 1/13/13 7/14/14 4/15/15
f 3/16/16 5/17/17 1/18/18
f 9/19/19 3/20/20 2/21/21
f 3/22/22 9/23/23 10/24/24
f 11/25/25 10/26/26 9/27/27
f 10/28/28 11/29/29 12/30/30
f 11/31/31 13/32/32 12/33/33
f 13/34/34 11/35/35 14/36/36
f 6/37/37 5/38/38 15/39/39
f 13/40/40 14/41/41 16/42/42
f 16/43/43 17/44/44 13/45/45
f 13/46/46 17/47/47 18/48/48
f 19/49/49 18/50/50 17/51/51
f 18/52/52 19/53/53 20/54/54
f 21/55/55 22/56/56 23/57/57
f 22/58/58 21/59/59 24/60/60
f 16/61/61 21/62/62 25/63/63
f 21/64/64 14/65/65 24/66/66
f 14/67/67 21/68/68 16/69/69
f 23/70/70 25/71/71 21/72/72
f 4/73/73 7/74/74 23/75/75
f 22/76/76 4/77/77 23/78/78
f 25/79/79 23/80/80 7/81/81
f 4/82/82 22/83/83 2/84/84
f 9/85/85 2/86/86 22/87/87
f 24/88/88 9/89/89 22/90/90
f 24/91/91 14/92/92 11/93/93
f 9/94/94 24/95/95 11/96/96
f 26/97/97 7/98/98 8/99/99
f 7/100/100 26/101/101 25/102/102
f 27/103/103 28/104/104 29/105/105
f 29/106/106 30/107/107 27/108/108
f 27/109/109 18/110/110 20/111/111
f 30/112/112 18/113/113 27/114/114
f 27/115/115 15/116/116 28/117/117
f 15/118/118 27/119/119 20/120/120
f 15/121/121 5/122/122 28/123/123
f 28/124/124 3/125/125 29/126/126
f 3/127/127 28/128/128 5/129/129
f 31/130/130 15/131/131 20/132/132
f 32/133/133 15/134/134 31/135/135
f 6/136/136 15/137/137 32/138/138
f 20/139/139 19/140/140 33/141/141
f 31/142/142 20/143/143 33/144/144
f 34/145/145 32/146/146 31/147/147
f 34/148/148 31/149/149 33/150/150
f 35/151/151 6/152/152 32/153/153
f 32/154/154 34/155/155 35/156/156
f 33/157/157 17/158/158 34/159/159
f 3/160/160 10/161/161 29/162/162
f 12/163/163 29/164/164 10/165/165
f 13/166/166 30/167/167 12/168/168
f 29/169/169 12/170/170 30/171/171
f 18/172/172 30/173/173 13/174/174
f 17/175/175 25/176/176 26/177/177
f 25/178/178 17/179/179 16/180/180
f 6/181/181 35/182/182 1/183/183
f 17/184/184 33/185/185 19/186/186
