# Wavefront OBJ file
# Exported by Misfit Model 3D 1.2.4
# Tue Mar 27 13:02:37 2018

# 8 Vertices
v 10.241926 -0.327339 -14.275373
v -10.180766 -0.327339 -14.275373
v -10.180766 -0.327339 14.299648
v 10.241926 -0.327339 14.299648
v -10.180766 -15.555925 14.299648
v 10.241926 -15.555925 14.299648
v 10.241926 -15.555925 -14.275373
v -10.180766 -15.555925 -14.275373

# 36 Texture Coordinates
vt 0.0 0.007813
vt 0.0 0.492188
vt 0.59375 0.492188
vt 0.609375 0.492188
vt 0.992188 0.492188
vt 0.992188 0.007813
vt 0.0 1.0
vt 0.992188 1.0
vt 0.992188 0.507813
vt 0.609375 0.492188
vt 0.992188 0.492188
vt 0.992188 0.007813
vt 0.0 1.0
vt 0.992188 1.0
vt 0.992188 0.507813
vt 0.59375 0.007813
vt 0.59375 0.492188
vt 0.0 0.492188
vt 0.59375 0.492188
vt 0.59375 0.007813
vt 0.0 0.007813
vt 0.992188 0.007813
vt 0.609375 0.007813
vt 0.609375 0.492188
vt 0.992188 0.507813
vt 0.0 0.507813
vt 0.0 1.0
vt 0.992188 0.007813
vt 0.609375 0.007813
vt 0.609375 0.492188
vt 0.992188 0.507813
vt 0.0 0.507813
vt 0.0 1.0
vt 0.0 0.492188
vt 0.0 0.007813
vt 0.59375 0.007813

# 36 Vertex Normals
vn 0.666667 0.666667 -0.333333
vn -0.408248 0.408248 -0.816497
vn -0.666667 0.666667 0.333333
vn 0.408248 0.408248 0.816497
vn -0.666667 0.666667 0.333333
vn -0.408248 -0.408248 0.816497
vn 0.666667 0.666667 -0.333333
vn 0.408248 0.408248 0.816497
vn 0.666667 -0.666667 0.333333
vn -0.408248 0.408248 -0.816497
vn 0.666667 0.666667 -0.333333
vn 0.408248 -0.408248 -0.816497
vn -0.666667 0.666667 0.333333
vn -0.408248 0.408248 -0.816497
vn -0.666667 -0.666667 -0.333333
vn 0.666667 -0.666667 0.333333
vn -0.408248 -0.408248 0.816497
vn -0.666667 -0.666667 -0.333333
vn -0.666667 0.666667 0.333333
vn 0.408248 0.408248 0.816497
vn 0.666667 0.666667 -0.333333
vn -0.408248 -0.408248 0.816497
vn 0.666667 -0.666667 0.333333
vn 0.408248 0.408248 0.816497
vn 0.666667 -0.666667 0.333333
vn 0.408248 -0.408248 -0.816497
vn 0.666667 0.666667 -0.333333
vn 0.408248 -0.408248 -0.816497
vn -0.666667 -0.666667 -0.333333
vn -0.408248 0.408248 -0.816497
vn -0.666667 -0.666667 -0.333333
vn -0.408248 -0.408248 0.816497
vn -0.666667 0.666667 0.333333
vn -0.666667 -0.666667 -0.333333
vn 0.408248 -0.408248 -0.816497
vn 0.666667 -0.666667 0.333333

# Group, 12 grouped triangles

o Group
g Group

f 1/1/1 2/2/2 3/3/3
f 4/4/4 3/5/5 5/6/6
f 1/7/7 4/8/8 6/9/9
f 2/10/10 1/11/11 7/12/12
f 3/13/13 2/14/14 8/15/15
f 6/16/16 5/17/17 8/18/18
f 3/19/19 4/20/20 1/21/21
f 5/22/22 6/23/23 4/24/24
f 6/25/25 7/26/26 1/27/27
f 7/28/28 8/29/29 2/30/30
f 8/31/31 5/32/32 3/33/33
f 8/34/34 7/35/35 6/36/36
