# Wavefront OBJ file
# Exported by Misfit Model 3D 1.2.4
# Mon Mar 26 13:56:10 2018

mtllib shellbox.mtl

# 16 Vertices
v -8.233011 -15.382583 9.078409
v 9.083663 -15.382583 8.967971
v 9.083663 -15.382583 17.803029
v -8.233011 -15.382583 17.803029
v -8.233011 -6.824151 9.078409
v -8.233011 -6.824151 17.803029
v 9.083663 -6.824151 17.803029
v 9.083663 -6.824151 8.967971
v -9.203341 -3.438398 9.078409
v -9.203341 -3.438398 -10.358719
v -9.203341 -15.429607 -10.358719
v -9.203341 -15.429607 9.078409
v 9.830071 -3.438398 9.078409
v 9.830071 -15.429607 9.078409
v 9.830071 -15.429607 -10.358719
v 9.830071 -3.438398 -10.358719

# 66 Texture Coordinates
vt 0.671875 0.398438
vt 0.671875 0.625
vt 0.992188 0.625
vt 0.992188 0.625
vt 0.992188 0.398438
vt 0.671875 0.398438
vt 0.992188 1.0
vt 0.992188 0.640625
vt 0.0 0.640625
vt 0.0 0.640625
vt 0.0 1.0
vt 0.992188 1.0
vt 0.992188 0.625
vt 0.992188 0.398438
vt 0.671875 0.398438
vt 0.671875 0.398438
vt 0.671875 0.625
vt 0.992188 0.625
vt 0.992188 0.625
vt 0.992188 0.398438
vt 0.671875 0.398438
vt 0.671875 0.398438
vt 0.671875 0.625
vt 0.992188 0.625
vt 0.992188 0.625
vt 0.992188 0.398438
vt 0.671875 0.398438
vt 0.671875 0.398438
vt 0.671875 0.625
vt 0.992188 0.625
vt 0.0 0.382813
vt 0.65625 0.382813
vt 0.65625 0.007813
vt 0.65625 0.007813
vt 0.0 0.007813
vt 0.0 0.382813
vt 0.65625 0.382813
vt 0.65625 0.007813
vt 0.0 0.007813
vt 0.0 0.007813
vt 0.0 0.382813
vt 0.65625 0.382813
vt 0.65625 0.625
vt 0.65625 0.398438
vt 0.0 0.398438
vt 0.0 0.398438
vt 0.0 0.625
vt 0.65625 0.625
vt 0.84375 0.382813
vt 0.992188 0.382813
vt 0.992188 0.007813
vt 0.992188 0.007813
vt 0.84375 0.007813
vt 0.84375 0.382813
vt 0.0 0.398438
vt 0.0 0.625
vt 0.65625 0.625
vt 0.65625 0.625
vt 0.65625 0.398438
vt 0.0 0.398438
vt 0.671875 0.007813
vt 0.828125 0.007813
vt 0.828125 0.382813
vt 0.828125 0.382813
vt 0.671875 0.382813
vt 0.671875 0.007813

# 66 Vertex Normals
vn -0.447214 -0.894427 -0.0
vn 0.894427 -0.447214 -0.0
vn 0.333333 -0.666667 0.666667
vn 0.333333 -0.666667 0.666667
vn -0.816497 -0.408248 0.408248
vn -0.447214 -0.894427 -0.0
vn -0.707107 0.707107 0.0
vn -0.408248 0.408248 0.816497
vn 0.666667 0.666667 0.333333
vn 0.666667 0.666667 0.333333
vn 0.707107 0.707107 -0.0
vn -0.707107 0.707107 0.0
vn -0.408248 0.408248 0.816497
vn -0.816497 -0.408248 0.408248
vn 0.333333 -0.666667 0.666667
vn 0.333333 -0.666667 0.666667
vn 0.666667 0.666667 0.333333
vn -0.408248 0.408248 0.816497
vn -0.707107 0.707107 0.0
vn -0.447214 -0.894427 -0.0
vn -0.816497 -0.408248 0.408248
vn -0.816497 -0.408248 0.408248
vn -0.408248 0.408248 0.816497
vn -0.707107 0.707107 0.0
vn 0.666667 0.666667 0.333333
vn 0.333333 -0.666667 0.666667
vn 0.894427 -0.447214 -0.0
vn 0.894427 -0.447214 -0.0
vn 0.707107 0.707107 -0.0
vn 0.666667 0.666667 0.333333
vn -0.666667 0.666667 0.333333
vn -0.408248 0.408248 -0.816497
vn -0.666667 -0.666667 -0.333333
vn -0.666667 -0.666667 -0.333333
vn -0.408248 -0.408248 0.816497
vn -0.666667 0.666667 0.333333
vn 0.666667 0.333333 0.666667
vn 0.408248 -0.816497 0.408248
vn 0.666667 -0.333333 -0.666667
vn 0.666667 -0.333333 -0.666667
vn 0.408248 0.816497 -0.408248
vn 0.666667 0.333333 0.666667
vn 0.408248 -0.816497 0.408248
vn -0.408248 -0.408248 0.816497
vn -0.666667 -0.666667 -0.333333
vn -0.666667 -0.666667 -0.333333
vn 0.666667 -0.333333 -0.666667
vn 0.408248 -0.816497 0.408248
vn 0.666667 0.333333 0.666667
vn -0.666667 0.666667 0.333333
vn -0.408248 -0.408248 0.816497
vn -0.408248 -0.408248 0.816497
vn 0.408248 -0.816497 0.408248
vn 0.666667 0.333333 0.666667
vn 0.408248 0.816497 -0.408248
vn -0.408248 0.408248 -0.816497
vn -0.666667 0.666667 0.333333
vn -0.666667 0.666667 0.333333
vn 0.666667 0.333333 0.666667
vn 0.408248 0.816497 -0.408248
vn 0.666667 -0.333333 -0.666667
vn -0.666667 -0.666667 -0.333333
vn -0.408248 0.408248 -0.816497
vn -0.408248 0.408248 -0.816497
vn 0.408248 0.816497 -0.408248
vn 0.666667 -0.333333 -0.666667

# Group, 22 grouped triangles

usemtl skin
o Group
g Group

f 1/1/1 2/2/2 3/3/3
f 3/4/4 4/5/5 1/6/6
f 5/7/7 6/8/8 7/9/9
f 7/10/10 8/11/11 5/12/12
f 6/13/13 4/14/14 3/15/15
f 3/16/16 7/17/17 6/18/18
f 5/19/19 1/20/20 4/21/21
f 4/22/22 6/23/23 5/24/24
f 7/25/25 3/26/26 2/27/27
f 2/28/28 8/29/29 7/30/30
f 9/31/31 10/32/32 11/33/33
f 11/34/34 12/35/35 9/36/36
f 13/37/37 14/38/38 15/39/39
f 15/40/40 16/41/41 13/42/42
f 14/43/43 12/44/44 11/45/45
f 11/46/46 15/47/47 14/48/48
f 13/49/49 9/50/50 12/51/51
f 12/52/52 14/53/53 13/54/54
f 16/55/55 10/56/56 9/57/57
f 9/58/58 13/59/59 16/60/60
f 15/61/61 11/62/62 10/63/63
f 10/64/64 16/65/65 15/66/66
